<?xml version="1.0" encoding="UTF-8"?>
<svg width="700pt" height="700pt" version="1.1" viewBox="0 0 700 700" xmlns="http://www.w3.org/2000/svg">
 <path d="m575.05 128.98v310.1c0 29.75-25.551 53.898-57.051 53.898l-336 0.003906c-31.5 0-57.051-24.148-57.051-53.898v-310.1c0-29.75 25.551-53.898 57.051-53.898h80.148v35l-80.148-0.003906c-12.074 0-22.051 8.5742-22.051 18.898v310.1c0 10.5 9.9766 18.898 22.051 18.898h10.676v-121.45c0-19.25 15.75-35 35-35h241.15c19.25 0 35 15.75 35 35v121.45h14.176c12.074 0 22.051-8.5742 22.051-18.898v-310.1c0-10.5-9.9766-18.898-22.051-18.898h-79.801v-35h79.801c31.5 0 57.051 24.148 57.051 53.898zm-242.55 4.8984v132.82h35v-132.82l37.102 37.102 24.676-24.676-79.449-79.449-79.449 79.449 24.676 24.676 37.102-37.102z"/>
</svg>
