<?xml version="1.0" encoding="UTF-8"?>
<svg width="700pt" height="700pt" version="1.1" viewBox="0 0 700 700" xmlns="http://www.w3.org/2000/svg">
 <path d="m113.75 385c0-9.3789 5.0039-18.043 13.125-22.734 8.1211-4.6875 18.129-4.6875 26.25 0 8.1211 4.6914 13.125 13.355 13.125 22.734v78.75h367.5v-78.75c0-9.3789 5.0039-18.043 13.125-22.734 8.1211-4.6875 18.129-4.6875 26.25 0 8.1211 4.6914 13.125 13.355 13.125 22.734v105c-0.089844 6.9336-2.8867 13.559-7.7891 18.461-4.9023 4.9023-11.527 7.6992-18.461 7.7891h-420c-6.9336-0.089844-13.559-2.8867-18.461-7.7891-4.9023-4.9023-7.6992-11.527-7.7891-18.461zm236.25-341.25c-6.9336 0.089844-13.559 2.8867-18.461 7.7891-4.9023 4.9023-7.6992 11.527-7.7891 18.461v216.65l-54.25-54.25c-6.6992-6.2422-16.168-8.543-24.988-6.0664-8.8164 2.4727-15.707 9.3633-18.18 18.18-2.4766 8.8203-0.17578 18.289 6.0664 24.988l99.051 99.051c2.4297 2.3711 5.2773 4.2695 8.4023 5.5977 6.4766 2.8047 13.82 2.8047 20.297 0 3.125-1.3281 5.9727-3.2266 8.4023-5.5977l99.051-99.051c6.2422-6.6992 8.543-16.168 6.0664-24.988-2.4727-8.8164-9.3633-15.707-18.18-18.18-8.8203-2.4766-18.289-0.17578-24.988 6.0664l-54.25 54.25v-216.65c-0.089844-6.9336-2.8867-13.559-7.7891-18.461-4.9023-4.9023-11.527-7.6992-18.461-7.7891z"/>
</svg>
