<?xml version="1.0" encoding="UTF-8"?>
<svg width="700pt" height="700pt" version="1.1" viewBox="0 0 700 700" xmlns="http://www.w3.org/2000/svg" xmlns:xlink="http://www.w3.org/1999/xlink">
 <defs>
  <symbol id="o" overflow="visible">
   <path d="m32.906-1.9688c-1.6875 0.88672-3.4531 1.5547-5.2969 2s-3.7617 0.67188-5.75 0.67188c-5.9688 0-10.699-1.6641-14.188-5-3.4805-3.3438-5.2188-7.8672-5.2188-13.578 0-5.7188 1.7383-10.242 5.2188-13.578 3.4883-3.332 8.2188-5 14.188-5 1.9883 0 3.9062 0.22656 5.75 0.67188 1.8438 0.44922 3.6094 1.1094 5.2969 1.9844v7.4062c-1.7109-1.1641-3.3984-2.0195-5.0625-2.5625-1.6562-0.53906-3.4062-0.8125-5.25-0.8125-3.293 0-5.8828 1.0586-7.7656 3.1719-1.8867 2.1055-2.8281 5.0117-2.8281 8.7188 0 3.6992 0.94141 6.6055 2.8281 8.7188 1.8828 2.1055 4.4727 3.1562 7.7656 3.1562 1.8438 0 3.5938-0.26953 5.25-0.8125 1.6641-0.53906 3.3516-1.3945 5.0625-2.5625z"/>
  </symbol>
  <symbol id="h" overflow="visible">
   <path d="m24.078-19.547c-0.75-0.35156-1.5-0.61328-2.25-0.78125-0.74219-0.16406-1.4844-0.25-2.2344-0.25-2.2109 0-3.9062 0.71094-5.0938 2.125-1.1875 1.418-1.7812 3.4453-1.7812 6.0781v12.375h-8.5938v-26.859h8.5938v4.4062c1.1016-1.7578 2.3672-3.0391 3.7969-3.8438 1.4258-0.8125 3.1406-1.2188 5.1406-1.2188 0.28906 0 0.60156 0.015625 0.9375 0.046875 0.33203 0.023438 0.82031 0.070312 1.4688 0.14062z"/>
  </symbol>
  <symbol id="b" overflow="visible">
   <path d="m30.938-13.5v2.4375h-20.078c0.20703 2.0234 0.9375 3.5391 2.1875 4.5469 1.25 1 2.9922 1.5 5.2344 1.5 1.8008 0 3.6484-0.26562 5.5469-0.79688 1.8945-0.53906 3.8438-1.3516 5.8438-2.4375v6.625c-2.0312 0.76172-4.0625 1.3398-6.0938 1.7344s-4.0625 0.59375-6.0938 0.59375c-4.8672 0-8.6484-1.2344-11.344-3.7031-2.6875-2.4766-4.0312-5.9453-4.0312-10.406 0-4.3828 1.3203-7.832 3.9688-10.344 2.6445-2.5078 6.2852-3.7656 10.922-3.7656 4.2266 0 7.6094 1.2734 10.141 3.8125 2.5312 2.543 3.7969 5.9453 3.7969 10.203zm-8.8281-2.8594c0-1.6328-0.47656-2.9453-1.4219-3.9375-0.94922-1-2.1953-1.5-3.7344-1.5-1.6562 0-3.0078 0.46875-4.0469 1.4062-1.043 0.92969-1.6875 2.2734-1.9375 4.0312z"/>
  </symbol>
  <symbol id="a" overflow="visible">
   <path d="m16.172-12.094c-1.793 0-3.1406 0.30859-4.0469 0.92188-0.90625 0.60547-1.3594 1.5-1.3594 2.6875 0 1.0859 0.36328 1.9336 1.0938 2.5469 0.72656 0.61719 1.7383 0.92188 3.0312 0.92188 1.6133 0 2.9727-0.57812 4.0781-1.7344 1.1016-1.1562 1.6562-2.6094 1.6562-4.3594v-0.98438zm13.109-3.2344v15.328h-8.6562v-3.9844c-1.1484 1.6367-2.4453 2.8281-3.8906 3.5781-1.4375 0.73828-3.1875 1.1094-5.25 1.1094-2.7812 0-5.043-0.8125-6.7812-2.4375-1.7305-1.625-2.5938-3.7344-2.5938-6.3281 0-3.1445 1.082-5.4531 3.25-6.9219 2.1641-1.4766 5.5664-2.2188 10.203-2.2188h5.0625v-0.67188c0-1.3516-0.53906-2.3438-1.6094-2.9688-1.0625-0.63281-2.7305-0.95312-5-0.95312-1.8438 0-3.5586 0.18359-5.1406 0.54688-1.5859 0.36719-3.0547 0.91797-4.4062 1.6562v-6.5469c1.832-0.44531 3.6758-0.78516 5.5312-1.0156 1.8516-0.23828 3.707-0.35938 5.5625-0.35938 4.8438 0 8.3359 0.96094 10.484 2.875 2.1562 1.9062 3.2344 5.0117 3.2344 9.3125z"/>
  </symbol>
  <symbol id="g" overflow="visible">
   <path d="m13.5-34.5v7.6406h8.8594v6.1406h-8.8594v11.391c0 1.25 0.24219 2.0938 0.73438 2.5312 0.5 0.4375 1.4883 0.65625 2.9688 0.65625h4.4062v6.1406h-7.3594c-3.3984 0-5.8047-0.70703-7.2188-2.125-1.4062-1.4141-2.1094-3.8164-2.1094-7.2031v-11.391h-4.2812v-6.1406h4.2812v-7.6406z"/>
  </symbol>
  <symbol id="f" overflow="visible">
   <path d="m22.406-22.938v-14.391h8.625v37.328h-8.625v-3.8906c-1.1875 1.5859-2.4961 2.7461-3.9219 3.4844-1.418 0.73828-3.0625 1.1094-4.9375 1.1094-3.3047 0-6.0234-1.3164-8.1562-3.9531-2.125-2.6328-3.1875-6.0195-3.1875-10.156 0-4.1445 1.0625-7.5312 3.1875-10.156 2.1328-2.6328 4.8516-3.9531 8.1562-3.9531 1.8516 0 3.4922 0.375 4.9219 1.125 1.4375 0.74219 2.75 1.8906 3.9375 3.4531zm-5.6562 17.391c1.832 0 3.2344-0.67188 4.2031-2.0156s1.4531-3.2891 1.4531-5.8438c0-2.5625-0.48438-4.5156-1.4531-5.8594s-2.3711-2.0156-4.2031-2.0156c-1.8242 0-3.2188 0.67188-4.1875 2.0156s-1.4531 3.2969-1.4531 5.8594c0 2.5547 0.48438 4.5 1.4531 5.8438s2.3633 2.0156 4.1875 2.0156z"/>
  </symbol>
  <symbol id="e" overflow="visible">
   <path d="m18.422-5.5469c1.8438 0 3.2422-0.67188 4.2031-2.0156 0.96875-1.3438 1.4531-3.2891 1.4531-5.8438 0-2.5625-0.48438-4.5156-1.4531-5.8594-0.96094-1.3438-2.3594-2.0156-4.2031-2.0156s-3.2578 0.67969-4.2344 2.0312c-0.98047 1.3555-1.4688 3.3047-1.4688 5.8438 0 2.543 0.48828 4.4922 1.4688 5.8438 0.97656 1.3438 2.3906 2.0156 4.2344 2.0156zm-5.7031-17.391c1.1758-1.5625 2.4844-2.7109 3.9219-3.4531 1.4453-0.75 3.1016-1.125 4.9688-1.125 3.3125 0 6.0312 1.3203 8.1562 3.9531 2.125 2.625 3.1875 6.0117 3.1875 10.156 0 4.1367-1.0625 7.5234-3.1875 10.156-2.125 2.6367-4.8438 3.9531-8.1562 3.9531-1.8672 0-3.5234-0.37109-4.9688-1.1094-1.4375-0.75-2.7461-1.9102-3.9219-3.4844v3.8906h-8.5938v-37.328h8.5938z"/>
  </symbol>
  <symbol id="d" overflow="visible">
   <path d="m0.59375-26.859h8.5938l7.2188 18.219 6.1406-18.219h8.5938l-11.297 29.406c-1.1367 2.9883-2.4648 5.0781-3.9844 6.2656-1.5117 1.1953-3.5078 1.7969-5.9844 1.7969h-4.9531v-5.6406h2.6875c1.4453 0 2.5039-0.23438 3.1719-0.70312 0.66406-0.46094 1.1797-1.2891 1.5469-2.4844l0.23438-0.75z"/>
  </symbol>
  <symbol id="c" overflow="visible">
   <path d="m29.438-34.688v7.5781c-1.9688-0.875-3.8906-1.5352-5.7656-1.9844-1.8672-0.44531-3.6328-0.67188-5.2969-0.67188-2.2109 0-3.8438 0.30859-4.9062 0.92188-1.0547 0.60547-1.5781 1.543-1.5781 2.8125 0 0.96094 0.35156 1.7109 1.0625 2.25 0.71875 0.53125 2.0156 0.99219 3.8906 1.375l3.9219 0.79688c3.9883 0.80469 6.8203 2.0234 8.5 3.6562 1.6758 1.625 2.5156 3.9375 2.5156 6.9375 0 3.9609-1.1719 6.9023-3.5156 8.8281-2.3438 1.9297-5.9219 2.8906-10.734 2.8906-2.2734 0-4.5547-0.21875-6.8438-0.65625-2.2812-0.42578-4.5625-1.0664-6.8438-1.9219v-7.7969c2.2812 1.2188 4.4883 2.1367 6.625 2.75 2.1328 0.61719 4.1914 0.92188 6.1719 0.92188 2.0195 0 3.5664-0.33203 4.6406-1 1.0703-0.67578 1.6094-1.6328 1.6094-2.875 0-1.125-0.36719-1.9883-1.0938-2.5938-0.73047-0.61328-2.1836-1.1602-4.3594-1.6406l-3.5781-0.78125c-3.5859-0.76953-6.2031-1.9922-7.8594-3.6719-1.6484-1.6758-2.4688-3.9414-2.4688-6.7969 0-3.5625 1.1484-6.3008 3.4531-8.2188 2.3008-1.9141 5.6094-2.875 9.9219-2.875 1.9688 0 3.9883 0.14844 6.0625 0.4375 2.082 0.29297 4.2383 0.73438 6.4688 1.3281z"/>
  </symbol>
  <symbol id="n" overflow="visible">
   <path d="m29.031-22.406c1.082-1.6562 2.3672-2.9219 3.8594-3.7969 1.5-0.875 3.1445-1.3125 4.9375-1.3125 3.082 0 5.4297 0.95312 7.0469 2.8594 1.6133 1.9062 2.4219 4.6719 2.4219 8.2969v16.359h-8.625v-14.016c0.007813-0.19531 0.019531-0.40625 0.03125-0.625 0.007813-0.22656 0.015625-0.55078 0.015625-0.96875 0-1.9062-0.28125-3.2852-0.84375-4.1406-0.5625-0.85156-1.4648-1.2812-2.7031-1.2812-1.6367 0-2.8984 0.67188-3.7812 2.0156-0.88672 1.3438-1.3516 3.2891-1.3906 5.8281v13.188h-8.625v-14.016c0-2.9688-0.25781-4.8789-0.76562-5.7344-0.51172-0.85156-1.4219-1.2812-2.7344-1.2812-1.6484 0-2.918 0.67969-3.8125 2.0312-0.89844 1.3438-1.3438 3.2734-1.3438 5.7812v13.219h-8.6406v-26.859h8.6406v3.9219c1.0508-1.5078 2.2578-2.6484 3.625-3.4219 1.3633-0.76953 2.875-1.1562 4.5312-1.1562 1.8516 0 3.4883 0.44922 4.9062 1.3438 1.4258 0.89844 2.5078 2.1523 3.25 3.7656z"/>
  </symbol>
  <symbol id="m" overflow="visible">
   <path d="m25.109-26.031v6.5312c-1.8359-0.76953-3.6094-1.3438-5.3281-1.7188-1.7109-0.38281-3.3242-0.57812-4.8438-0.57812-1.625 0-2.8359 0.20312-3.625 0.60938-0.79297 0.40625-1.1875 1.0312-1.1875 1.875 0 0.6875 0.29688 1.2188 0.89062 1.5938 0.60156 0.36719 1.6797 0.63672 3.2344 0.8125l1.5156 0.21875c4.3945 0.55469 7.3477 1.4688 8.8594 2.75 1.5195 1.2812 2.2812 3.2891 2.2812 6.0156 0 2.8672-1.0586 5.0234-3.1719 6.4688-2.1055 1.4375-5.25 2.1562-9.4375 2.1562-1.7734 0-3.6055-0.14062-5.5-0.42188-1.8984-0.28125-3.8438-0.70312-5.8438-1.2656v-6.5312c1.707 0.83594 3.457 1.4609 5.25 1.875 1.8008 0.41797 3.6328 0.625 5.5 0.625 1.6758 0 2.9375-0.22656 3.7812-0.6875 0.84375-0.46875 1.2656-1.1562 1.2656-2.0625 0-0.76953-0.29297-1.3438-0.875-1.7188-0.58594-0.375-1.7461-0.66406-3.4844-0.875l-1.5156-0.1875c-3.8242-0.48828-6.5-1.3789-8.0312-2.6719-1.5312-1.2891-2.2969-3.2578-2.2969-5.9062 0-2.8438 0.97266-4.9531 2.9219-6.3281 1.9453-1.375 4.9375-2.0625 8.9688-2.0625 1.582 0 3.2422 0.12109 4.9844 0.35938 1.75 0.24219 3.6445 0.61719 5.6875 1.125z"/>
  </symbol>
  <symbol id="l" overflow="visible">
   <path d="m31.141-16.359v16.359h-8.6406v-12.469c0-2.3516-0.054688-3.9688-0.15625-4.8438-0.10547-0.88281-0.28906-1.5352-0.54688-1.9531-0.33594-0.55078-0.78906-0.98438-1.3594-1.2969-0.57422-0.3125-1.2305-0.46875-1.9688-0.46875-1.793 0-3.1992 0.69531-4.2188 2.0781-1.0234 1.375-1.5312 3.2891-1.5312 5.7344v13.219h-8.5938v-37.328h8.5938v14.391c1.2891-1.5625 2.6602-2.7109 4.1094-3.4531 1.457-0.75 3.0664-1.125 4.8281-1.125 3.1016 0 5.457 0.95312 7.0625 2.8594 1.6133 1.9062 2.4219 4.6719 2.4219 8.2969z"/>
  </symbol>
  <symbol id="k" overflow="visible">
   <path d="m4.125-26.859h8.5938v26.859h-8.5938zm0-10.469h8.5938v7.0156h-8.5938z"/>
  </symbol>
  <symbol id="j" overflow="visible">
   <path d="m25.828-26.031v7.0156c-1.168-0.80078-2.3398-1.3945-3.5156-1.7812-1.168-0.38281-2.3867-0.57812-3.6562-0.57812-2.3984 0-4.2617 0.70312-5.5938 2.1094-1.3359 1.3984-2 3.3516-2 5.8594 0 2.5117 0.66406 4.4688 2 5.875 1.332 1.3984 3.1953 2.0938 5.5938 2.0938 1.3438 0 2.6172-0.19531 3.8281-0.59375 1.207-0.40625 2.3203-1 3.3438-1.7812v7.0156c-1.3438 0.5-2.7109 0.875-4.0938 1.125-1.375 0.25-2.7617 0.375-4.1562 0.375-4.8438 0-8.6367-1.2422-11.375-3.7344-2.7305-2.4883-4.0938-5.9453-4.0938-10.375 0-4.4258 1.3633-7.8828 4.0938-10.375 2.7383-2.4883 6.5312-3.7344 11.375-3.7344 1.4062 0 2.7891 0.125 4.1562 0.375 1.375 0.25 2.7383 0.62109 4.0938 1.1094z"/>
  </symbol>
  <symbol id="i" overflow="visible">
   <path d="m16.906-21.375c-1.8984 0-3.3438 0.6875-4.3438 2.0625-1 1.3672-1.5 3.3359-1.5 5.9062 0 2.5742 0.5 4.5469 1.5 5.9219 1 1.3672 2.4453 2.0469 4.3438 2.0469 1.875 0 3.3047-0.67969 4.2969-2.0469 0.98828-1.375 1.4844-3.3477 1.4844-5.9219 0-2.5703-0.49609-4.5391-1.4844-5.9062-0.99219-1.375-2.4219-2.0625-4.2969-2.0625zm0-6.1406c4.625 0 8.2344 1.25 10.828 3.75 2.6016 2.4922 3.9062 5.9453 3.9062 10.359 0 4.418-1.3047 7.875-3.9062 10.375-2.5938 2.4922-6.2031 3.7344-10.828 3.7344-4.6367 0-8.2617-1.2422-10.875-3.7344-2.6172-2.5-3.9219-5.957-3.9219-10.375 0-4.4141 1.3047-7.8672 3.9219-10.359 2.6133-2.5 6.2383-3.75 10.875-3.75z"/>
  </symbol>
 </defs>
 <g>
  <path d="m512.11 49.121c-0.003907-5.4219-4.3984-9.8203-9.8242-9.8242h-314.39c-12.488 0.015625-23.613 7.8828-27.793 19.652h352z"/>
  <path d="m374.56 9.8242c-0.003906-5.4258-4.4023-9.8203-9.8242-9.8242h-78.598c-5.4258 0.0039062-9.8203 4.3984-9.8242 9.8242v9.8242h98.246z"/>
  <path d="m364.74 167.02h-78.598c-5.4258 0-9.8242 4.4023-9.8242 9.8281s4.3984 9.8242 9.8242 9.8242h78.598c5.4258 0 9.8242-4.3984 9.8242-9.8242s-4.3984-9.8281-9.8242-9.8281z"/>
  <path d="m502.28 98.246c5.4258-0.003906 9.8203-4.4023 9.8242-9.8242v-9.8242h-373.33c-5.4258 0-9.8242 4.3984-9.8242 9.8242s4.3984 9.8242 9.8242 9.8242z"/>
  <path d="m478.41 432.57h-0.097656c-1.8281-0.19922-3.6641-0.29688-5.5-0.29297-32.18-0.16797-58.613 25.375-59.543 57.543-0.92969 32.164 23.98 59.195 56.117 60.887 32.133 1.6914 59.746-22.574 62.195-54.66 2.4531-32.086-21.152-60.266-53.172-63.477zm-5.5977 97.953c-21.707 0-39.301-17.594-39.301-39.301 0-21.703 17.594-39.297 39.301-39.297 21.703 0 39.297 17.594 39.297 39.297 0.003906 10.426-4.1367 20.422-11.508 27.793-7.3711 7.3711-17.367 11.508-27.789 11.508z"/>
  <path d="m492.46 491.23c0 10.852-8.7969 19.652-19.648 19.652-10.852 0-19.652-8.8008-19.652-19.652 0-10.852 8.8008-19.648 19.652-19.648 10.852 0 19.648 8.7969 19.648 19.648"/>
  <path d="m561.23 58.949h-29.473v19.648h29.473c5.4258 0 9.8242-4.3984 9.8242-9.8242 0-5.4258-4.3984-9.8242-9.8242-9.8242z"/>
  <path d="m469.37 412.83 12.871-294.93h-313.6l17.688 404.09c0.62109 15.766 13.594 28.219 29.375 28.195h205.33c-24.16-21.102-33.023-54.797-22.375-85.055 10.648-30.258 38.66-50.973 70.711-52.293zm-104.63-206.51h-78.598c-16.277 0-29.473-13.195-29.473-29.473 0-16.281 13.195-29.477 29.473-29.477h78.598c16.277 0 29.473 13.195 29.473 29.477 0 16.277-13.195 29.473-29.473 29.473z"/>
  <use x="124.035156" y="707.367188" xlink:href="#o"/>
  <use x="160.085938" y="707.367188" xlink:href="#h"/>
  <use x="184.3125" y="707.367188" xlink:href="#b"/>
  <use x="217.628906" y="707.367188" xlink:href="#a"/>
  <use x="250.777344" y="707.367188" xlink:href="#g"/>
  <use x="274.257812" y="707.367188" xlink:href="#b"/>
  <use x="307.574219" y="707.367188" xlink:href="#f"/>
  <use x="359.839844" y="707.367188" xlink:href="#e"/>
  <use x="395.003906" y="707.367188" xlink:href="#d"/>
  <use x="444.125" y="707.367188" xlink:href="#c"/>
  <use x="479.503906" y="707.367188" xlink:href="#n"/>
  <use x="530.6875" y="707.367188" xlink:href="#a"/>
  <use x="563.835938" y="707.367188" xlink:href="#m"/>
  <use x="593.078125" y="707.367188" xlink:href="#l"/>
  <use x="628.046875" y="707.367188" xlink:href="#k"/>
  <use x="644.886719" y="707.367188" xlink:href="#j"/>
  <use x="674.003906" y="707.367188" xlink:href="#i"/>
 </g>
</svg>
